<svg width="32" height="32" viewBox="0 0 32 32" fill="none" xmlns="http://www.w3.org/2000/svg">
<path d="M11.2686 25.2788C10.9033 25.2788 10.61 25.1598 10.3887 24.9219C10.1729 24.6839 10.0649 24.363 10.0649 23.959V9.43262C10.0649 8.5804 10.2863 7.93018 10.729 7.48193C11.1717 7.03369 11.8136 6.80957 12.6548 6.80957H19.3369C20.1781 6.80957 20.82 7.03369 21.2627 7.48193C21.7109 7.93018 21.9351 8.5804 21.9351 9.43262V23.959C21.9351 24.363 21.8244 24.6839 21.603 24.9219C21.3872 25.1598 21.0939 25.2788 20.7231 25.2788C20.4797 25.2788 20.2583 25.2124 20.0591 25.0796C19.8654 24.9468 19.5942 24.7116 19.2456 24.374L16.0664 21.2197C16.0221 21.1699 15.9751 21.1699 15.9253 21.2197L12.7544 24.374C12.4058 24.7116 12.1291 24.9468 11.9243 25.0796C11.7251 25.2124 11.5065 25.2788 11.2686 25.2788ZM12.1401 22.249L15.3774 19.103C15.5822 18.9093 15.7897 18.8125 16 18.8125C16.2103 18.8125 16.415 18.9093 16.6143 19.103L19.8599 22.249C19.9152 22.2988 19.9678 22.3154 20.0176 22.2988C20.0729 22.2878 20.1006 22.2435 20.1006 22.166V9.57373C20.1006 9.2583 20.0231 9.02588 19.8682 8.87646C19.7132 8.72152 19.4808 8.64404 19.1709 8.64404H12.8374C12.5164 8.64404 12.2785 8.72152 12.1235 8.87646C11.9741 9.02588 11.8994 9.2583 11.8994 9.57373V22.166C11.8994 22.2435 11.9243 22.2878 11.9741 22.2988C12.0239 22.3154 12.0793 22.2988 12.1401 22.249Z" fill="#17D3D2"/>
</svg>
