<svg width="32" height="32" viewBox="0 0 32 32" fill="none" xmlns="http://www.w3.org/2000/svg">
<path d="M9.98193 25.561C9.06331 25.561 8.36328 25.3231 7.88184 24.8472C7.40592 24.3768 7.16797 23.6851 7.16797 22.772V14.2305C7.16797 13.3174 7.40592 12.6257 7.88184 12.1553C8.36328 11.6794 9.06331 11.4414 9.98193 11.4414H22.0098C22.9284 11.4414 23.6257 11.6794 24.1016 12.1553C24.583 12.6312 24.8237 13.3229 24.8237 14.2305V22.772C24.8237 23.6795 24.583 24.3713 24.1016 24.8472C23.6257 25.3231 22.9284 25.561 22.0098 25.561H9.98193ZM10.1313 23.7183H21.8521C22.2118 23.7183 22.4884 23.6242 22.6821 23.436C22.8813 23.2479 22.981 22.9629 22.981 22.5811V14.4214C22.981 14.0396 22.8813 13.7546 22.6821 13.5664C22.4884 13.3783 22.2118 13.2842 21.8521 13.2842H10.1313C9.76611 13.2842 9.48665 13.3783 9.29297 13.5664C9.10482 13.7546 9.01074 14.0396 9.01074 14.4214V22.5811C9.01074 22.9629 9.10482 23.2479 9.29297 23.436C9.48665 23.6242 9.76611 23.7183 10.1313 23.7183ZM9.05225 10.0801C9.10758 9.67611 9.2487 9.36068 9.47559 9.13379C9.70247 8.9069 10.0456 8.79346 10.5049 8.79346H21.4951C21.9544 8.79346 22.2948 8.9069 22.5161 9.13379C22.743 9.36068 22.8869 9.67611 22.9478 10.0801H9.05225ZM10.729 7.61475C10.7567 7.23291 10.884 6.94238 11.1108 6.74316C11.3377 6.53841 11.6559 6.43604 12.0654 6.43604H19.9263C20.3358 6.43604 20.654 6.53841 20.8809 6.74316C21.1077 6.94238 21.2378 7.23291 21.271 7.61475H10.729ZM11.0776 24.4155C11.1994 23.9285 11.4097 23.4803 11.7085 23.0708C12.0073 22.6668 12.3753 22.3154 12.8125 22.0166C13.2497 21.7178 13.7394 21.4881 14.2817 21.3276C14.8241 21.1616 15.3996 21.0786 16.0083 21.0786C16.617 21.0786 17.1925 21.1616 17.7349 21.3276C18.2772 21.4881 18.7669 21.7178 19.2041 22.0166C19.6413 22.3154 20.0093 22.6668 20.3081 23.0708C20.6069 23.4803 20.8172 23.9285 20.939 24.4155H11.0776ZM16.0083 19.9414C15.5324 19.9359 15.1007 19.8114 14.7134 19.5679C14.326 19.3188 14.0189 18.984 13.792 18.5635C13.5706 18.1429 13.4572 17.6698 13.4517 17.144C13.4517 16.6515 13.5651 16.1978 13.792 15.7827C14.0244 15.3621 14.3315 15.0273 14.7134 14.7783C15.1007 14.5293 15.5324 14.4048 16.0083 14.4048C16.4842 14.4048 16.9159 14.5293 17.3032 14.7783C17.6906 15.0273 17.9977 15.3621 18.2246 15.7827C18.4515 16.1978 18.5649 16.6515 18.5649 17.144C18.5649 17.6698 18.4515 18.1457 18.2246 18.5718C17.9977 18.9924 17.6906 19.3271 17.3032 19.5762C16.9214 19.8252 16.4897 19.9469 16.0083 19.9414Z" fill="#17D3D2"/>
</svg>
