<svg width="32" height="32" viewBox="0 0 32 32" fill="none" xmlns="http://www.w3.org/2000/svg">
<path d="M15.5933 24.4404C14.243 24.4404 13.0615 24.1942 12.0488 23.7017C11.0361 23.2147 10.2476 22.534 9.68311 21.6597C9.12419 20.7798 8.84473 19.7533 8.84473 18.5801C8.84473 17.9603 8.89453 17.418 8.99414 16.9531C9.09375 16.4827 9.21549 16.0649 9.35938 15.6997C9.50326 15.3345 9.64714 14.9914 9.79102 14.6704C9.94043 14.3494 10.0622 14.0285 10.1562 13.7075C10.2559 13.381 10.3057 13.0241 10.3057 12.6367C10.3057 12.4154 10.2946 12.2051 10.2725 12.0059C10.2503 11.8011 10.2393 11.6296 10.2393 11.4912C10.2393 11.2533 10.3057 11.0651 10.4385 10.9268C10.5713 10.7884 10.7456 10.7192 10.9614 10.7192C11.2271 10.7192 11.4982 10.7967 11.7749 10.9517C12.0516 11.1011 12.3062 11.3252 12.5386 11.624C12.7765 11.9229 12.9785 12.2964 13.1445 12.7446L12.7876 12.8359C12.8817 12.6644 12.9398 12.5122 12.9619 12.3794C12.9896 12.2466 13.0034 12.111 13.0034 11.9727C12.9979 11.4469 12.901 10.9517 12.7129 10.4868C12.5303 10.0164 12.2896 9.56266 11.9907 9.12549C11.6919 8.68831 11.3682 8.25944 11.0195 7.83887C10.9199 7.72266 10.8424 7.60091 10.7871 7.47363C10.7373 7.34082 10.7124 7.21077 10.7124 7.0835C10.7124 6.757 10.848 6.50798 11.1191 6.33643C11.3958 6.15934 11.7611 6.0708 12.2148 6.0708C12.9508 6.0708 13.7311 6.16211 14.5557 6.34473C15.3802 6.52181 16.202 6.7985 17.021 7.1748C17.84 7.54557 18.6147 8.02148 19.3452 8.60254C20.0812 9.18359 20.7342 9.86979 21.3042 10.6611C21.8742 11.4525 22.3224 12.36 22.6489 13.3838C22.981 14.402 23.147 15.542 23.147 16.8037C23.147 17.9437 22.9671 18.984 22.6074 19.9248C22.2533 20.86 21.7414 21.6624 21.0718 22.332C20.4022 23.0072 19.6053 23.5273 18.6812 23.8926C17.757 24.2578 16.7277 24.4404 15.5933 24.4404ZM15.8008 21.7178C16.4372 21.7178 16.9712 21.5822 17.4028 21.311C17.8345 21.0343 18.161 20.6663 18.3823 20.207C18.6037 19.7477 18.7144 19.2386 18.7144 18.6797C18.7144 18.1208 18.6092 17.5674 18.3989 17.0195C18.1886 16.4717 17.8787 15.9736 17.4692 15.5254C17.0653 15.0716 16.5645 14.7119 15.9668 14.4463C15.9059 14.4186 15.8534 14.4214 15.8091 14.4546C15.7648 14.4823 15.751 14.5321 15.7676 14.604C15.8451 15.2238 15.8506 15.8049 15.7842 16.3472C15.7233 16.8895 15.5877 17.3294 15.3774 17.667C15.2834 17.418 15.1727 17.1911 15.0454 16.9863C14.9237 16.776 14.7743 16.5851 14.5972 16.4136C14.5418 16.3693 14.4893 16.3582 14.4395 16.3804C14.3952 16.397 14.3703 16.4357 14.3647 16.4966C14.3371 16.7567 14.2624 16.9891 14.1406 17.1938C14.0244 17.3986 13.8971 17.6061 13.7588 17.8164C13.6204 18.0212 13.4987 18.2508 13.3936 18.5054C13.2884 18.7599 13.2358 19.0643 13.2358 19.4185C13.2358 20.1047 13.471 20.6608 13.9414 21.0869C14.4118 21.5075 15.0316 21.7178 15.8008 21.7178Z" fill="white"/>
</svg>
