<svg width="32" height="32" viewBox="0 0 32 32" fill="none" xmlns="http://www.w3.org/2000/svg">
<path d="M9.33447 21.4438C8.88623 21.4438 8.5293 21.3276 8.26367 21.0952C8.00358 20.8628 7.87354 20.5557 7.87354 20.1738C7.87354 19.8695 7.94824 19.5817 8.09766 19.3105C8.2526 19.0394 8.44629 18.7821 8.67871 18.5386C8.91667 18.2896 9.16016 18.0461 9.40918 17.8081C9.61393 17.62 9.76888 17.3709 9.87402 17.061C9.9847 16.7511 10.0677 16.408 10.123 16.0317C10.1839 15.6499 10.2365 15.2625 10.2808 14.8696C10.3306 13.8846 10.4717 12.9992 10.7041 12.2134C10.9421 11.4276 11.2879 10.7635 11.7417 10.2212C12.1955 9.67887 12.7765 9.28044 13.4849 9.02588C13.6619 8.47803 13.9718 8.02148 14.4146 7.65625C14.8573 7.28548 15.383 7.1001 15.9917 7.1001C16.4399 7.1001 16.8411 7.19971 17.1953 7.39893C16.8688 7.75309 16.6087 8.16536 16.415 8.63574C16.2269 9.10059 16.1328 9.5931 16.1328 10.1133C16.1328 10.8493 16.3154 11.5244 16.6807 12.1387C17.0514 12.7529 17.5412 13.2454 18.1499 13.6162C18.7642 13.9814 19.4421 14.1641 20.1836 14.1641C20.4492 14.1641 20.7038 14.1392 20.9473 14.0894C21.1963 14.034 21.437 13.9565 21.6694 13.8569C21.6971 14.106 21.722 14.3605 21.7441 14.6206C21.7718 14.8807 21.7939 15.1436 21.8105 15.4092C21.8382 15.7135 21.8797 16.0179 21.9351 16.3223C21.9904 16.6266 22.0706 16.9116 22.1758 17.1772C22.2809 17.4373 22.4193 17.6476 22.5908 17.8081C22.8398 18.0461 23.0806 18.2896 23.313 18.5386C23.5509 18.7821 23.7446 19.0394 23.894 19.3105C24.049 19.5817 24.1265 19.8695 24.1265 20.1738C24.1265 20.5557 23.9937 20.8628 23.728 21.0952C23.4679 21.3276 23.1138 21.4438 22.6655 21.4438H9.33447ZM16 24.9302C15.502 24.9302 15.0537 24.8223 14.6553 24.6064C14.2624 24.3962 13.9442 24.1139 13.7007 23.7598C13.4572 23.4111 13.3188 23.0321 13.2856 22.6226H18.7227C18.6839 23.0321 18.5456 23.4111 18.3076 23.7598C18.0697 24.1139 17.7515 24.3962 17.353 24.6064C16.9546 24.8223 16.5036 24.9302 16 24.9302ZM20.1919 12.9688C19.6662 12.9688 19.1875 12.8415 18.7559 12.5869C18.3242 12.3268 17.9784 11.981 17.7183 11.5493C17.4637 11.1121 17.3364 10.6335 17.3364 10.1133C17.3364 9.5931 17.4637 9.11719 17.7183 8.68555C17.9784 8.24837 18.3242 7.90251 18.7559 7.64795C19.1875 7.38786 19.6662 7.25781 20.1919 7.25781C20.7121 7.25781 21.188 7.38786 21.6196 7.64795C22.0568 7.90251 22.4027 8.24837 22.6572 8.68555C22.9173 9.11719 23.0474 9.5931 23.0474 10.1133C23.0474 10.6335 22.9173 11.1121 22.6572 11.5493C22.4027 11.981 22.0568 12.3268 21.6196 12.5869C21.188 12.8415 20.7121 12.9688 20.1919 12.9688Z" fill="white"/>
</svg>
