<svg width="32" height="32" viewBox="0 0 32 32" fill="none" xmlns="http://www.w3.org/2000/svg">
<path d="M16.1992 24.3657C15.9502 24.3657 15.7371 24.2799 15.5601 24.1084C15.3885 23.9368 15.3027 23.7266 15.3027 23.4775V19.1528L11.2852 22.8882C11.097 23.0542 10.8895 23.14 10.6626 23.1455C10.4412 23.151 10.2144 23.0514 9.98193 22.8467L8.5708 23.9673C8.46012 24.0503 8.34391 24.0863 8.22217 24.0752C8.10042 24.0697 7.99251 24.0199 7.89844 23.9258L7.65771 23.6768C7.55811 23.5827 7.50553 23.4748 7.5 23.353C7.49447 23.2313 7.52767 23.1234 7.59961 23.0293L8.72021 21.6016C8.51546 21.3636 8.41309 21.1312 8.41309 20.9043C8.41862 20.6774 8.50993 20.4727 8.68701 20.29L16.3818 12.0225C16.332 11.5244 16.404 11.0347 16.5977 10.5532C16.7969 10.0718 17.1095 9.618 17.5356 9.19189L22.375 14.0396C21.9544 14.4657 21.4979 14.7811 21.0054 14.9858C20.5184 15.1851 20.0314 15.2598 19.5444 15.21L17.1206 17.4595L17.104 23.4775C17.0985 23.7266 17.0072 23.9368 16.8301 24.1084C16.6585 24.2799 16.4482 24.3657 16.1992 24.3657ZM9.81592 21.0288L10.563 21.7676L18.0088 14.6455C17.9092 14.5791 17.8096 14.5044 17.71 14.4214C17.6104 14.3384 17.5135 14.2498 17.4194 14.1558C17.3254 14.0562 17.2368 13.9565 17.1538 13.8569C17.0763 13.7518 17.0072 13.6466 16.9463 13.5415L9.81592 21.0288ZM18.4736 8.25391C18.9661 7.75586 19.5002 7.41553 20.0757 7.23291C20.6512 7.05029 21.2267 7.03369 21.8022 7.18311C22.3833 7.33252 22.9229 7.65625 23.4209 8.1543C23.9189 8.65234 24.2427 9.19189 24.3921 9.77295C24.5415 10.354 24.5221 10.9323 24.334 11.5078C24.1514 12.0833 23.8138 12.6118 23.3213 13.0933L18.4736 8.25391Z" fill="#17D3D2"/>
</svg>
