<svg width="33" height="33" viewBox="0 0 33 33" fill="none" xmlns="http://www.w3.org/2000/svg">
<path d="M12.4485 25.3223C12.205 25.3223 11.9919 25.2337 11.8093 25.0566C11.6322 24.8851 11.5437 24.6803 11.5437 24.4424C11.5437 24.1934 11.6322 23.9803 11.8093 23.8032C11.9919 23.6317 12.205 23.5459 12.4485 23.5459H15.4783V22.0103C14.3549 21.8996 13.3643 21.5731 12.5066 21.0308C11.6488 20.4884 10.9765 19.7663 10.4895 18.8643C10.0025 17.9622 9.75903 16.9219 9.75903 15.7432V14.1328C9.75903 13.8893 9.84481 13.6846 10.0164 13.5186C10.1934 13.347 10.4037 13.2612 10.6472 13.2612C10.8962 13.2612 11.1093 13.347 11.2864 13.5186C11.4635 13.6846 11.552 13.8893 11.552 14.1328V15.6851C11.552 16.6258 11.754 17.4476 12.158 18.1504C12.5619 18.8532 13.1236 19.3983 13.843 19.7856C14.5624 20.1675 15.3925 20.3584 16.3333 20.3584C16.8811 20.3584 17.3764 20.2948 17.8191 20.1675C17.9906 20.4442 18.1871 20.6987 18.4084 20.9312C18.6353 21.158 18.8816 21.3573 19.1472 21.5288C18.8484 21.6561 18.533 21.7612 18.2009 21.8442C17.8744 21.9217 17.5396 21.9771 17.1965 22.0103V23.5459H20.218C20.4615 23.5459 20.6718 23.6317 20.8489 23.8032C21.0315 23.9803 21.1228 24.1934 21.1228 24.4424C21.1228 24.6803 21.0315 24.8851 20.8489 25.0566C20.6718 25.2337 20.4615 25.3223 20.218 25.3223H12.4485ZM19.3547 12.8379C18.8844 13.1589 18.4693 13.5518 18.1096 14.0166C17.7555 14.4759 17.4788 14.985 17.2795 15.5439C17.0859 16.1029 16.989 16.6895 16.989 17.3037C16.989 17.7354 17.0444 18.1587 17.155 18.5737C17.0222 18.6125 16.8894 18.6429 16.7566 18.665C16.6238 18.6816 16.4827 18.6899 16.3333 18.6899C15.7633 18.6899 15.2486 18.5571 14.7893 18.2915C14.3355 18.0259 13.9731 17.6551 13.7019 17.1792C13.4363 16.7033 13.3035 16.1499 13.3035 15.519V9.90771C13.3035 9.27686 13.4363 8.72347 13.7019 8.24756C13.9731 7.77165 14.3355 7.40088 14.7893 7.13525C15.2486 6.86963 15.7633 6.73682 16.3333 6.73682C16.9032 6.73682 17.4151 6.86963 17.8689 7.13525C18.3227 7.40088 18.6824 7.77165 18.948 8.24756C19.2192 8.72347 19.3547 9.27686 19.3547 9.90771V12.8379ZM22.5256 21.6284C21.9335 21.6284 21.3774 21.515 20.8572 21.2881C20.337 21.0612 19.8777 20.7513 19.4792 20.3584C19.0863 19.96 18.7764 19.5007 18.5496 18.9805C18.3227 18.4603 18.2092 17.9041 18.2092 17.312C18.2092 16.7144 18.3227 16.1582 18.5496 15.6436C18.7764 15.1234 19.0863 14.6641 19.4792 14.2656C19.8777 13.8672 20.337 13.5573 20.8572 13.3359C21.3774 13.109 21.9335 12.9956 22.5256 12.9956C23.1178 12.9956 23.6739 13.109 24.1941 13.3359C24.7143 13.5573 25.1736 13.8672 25.572 14.2656C25.9705 14.6585 26.2804 15.1151 26.5017 15.6353C26.7231 16.1554 26.8337 16.7144 26.8337 17.312C26.8337 17.8986 26.7203 18.452 26.4934 18.9722C26.2721 19.4924 25.9622 19.9517 25.5637 20.3501C25.1653 20.7485 24.706 21.0612 24.1858 21.2881C23.6656 21.515 23.1122 21.6284 22.5256 21.6284ZM22.5173 20.0679C22.7 20.0679 22.8466 20.0125 22.9573 19.9019C23.068 19.7912 23.1233 19.6445 23.1233 19.4619V17.918H24.6672C24.8443 17.918 24.9882 17.8626 25.0989 17.752C25.2151 17.6413 25.2732 17.4946 25.2732 17.312C25.2732 17.1294 25.2151 16.9827 25.0989 16.8721C24.9882 16.7614 24.8443 16.7061 24.6672 16.7061H23.1233V15.1704C23.1233 14.9878 23.068 14.8411 22.9573 14.7305C22.8466 14.6198 22.7 14.5645 22.5173 14.5645C22.3347 14.5645 22.1881 14.6198 22.0774 14.7305C21.9667 14.8411 21.9114 14.9878 21.9114 15.1704V16.7061H20.3674C20.1848 16.7061 20.0382 16.7614 19.9275 16.8721C19.8168 16.9827 19.7615 17.1294 19.7615 17.312C19.7615 17.4946 19.8168 17.6413 19.9275 17.752C20.0437 17.8626 20.1903 17.918 20.3674 17.918H21.9114V19.4619C21.9114 19.6445 21.9667 19.7912 22.0774 19.9019C22.1881 20.0125 22.3347 20.0679 22.5173 20.0679Z" fill="#17D3D2"/>
</svg>
