<svg width="32" height="32" viewBox="0 0 32 32" fill="none" xmlns="http://www.w3.org/2000/svg">
<path d="M9.6416 20.5806H11.6753C11.9188 20.5806 12.1152 20.5059 12.2646 20.3564C12.4141 20.207 12.4888 20.0161 12.4888 19.7837V18.248C12.4888 18.0101 12.4141 17.8192 12.2646 17.6753C12.1152 17.5259 11.9188 17.4512 11.6753 17.4512H9.6416C9.39811 17.4512 9.20166 17.5259 9.05225 17.6753C8.90283 17.8192 8.82812 18.0101 8.82812 18.248V19.7837C8.82812 20.0161 8.90283 20.207 9.05225 20.3564C9.20166 20.5059 9.39811 20.5806 9.6416 20.5806ZM6.13037 14.2637H25.8696V12.2798H6.13037V14.2637ZM8.94434 23.27C8.02572 23.27 7.32568 23.0321 6.84424 22.5562C6.36833 22.0802 6.13037 21.3885 6.13037 20.481V11.5493C6.13037 10.6418 6.36833 9.95003 6.84424 9.47412C7.32568 8.99821 8.02572 8.76025 8.94434 8.76025H23.0557C23.9798 8.76025 24.6799 9.00098 25.1558 9.48242C25.6317 9.95833 25.8696 10.6473 25.8696 11.5493V20.481C25.8696 21.3885 25.6317 22.0802 25.1558 22.5562C24.6799 23.0321 23.9798 23.27 23.0557 23.27H8.94434Z" fill="white"/>
</svg>
