<svg width="32" height="32" viewBox="0 0 32 32" fill="none" xmlns="http://www.w3.org/2000/svg">
<path d="M16.2988 22.1245C16.0387 22.1245 15.7869 22.0221 15.5435 21.8174C15.3055 21.6126 15.1865 21.3968 15.1865 21.1699C15.1865 20.9154 15.2391 20.6774 15.3442 20.4561C15.4549 20.2347 15.5075 19.9857 15.502 19.709C15.502 19.6094 15.4577 19.5125 15.3691 19.4185C15.2806 19.3244 15.1174 19.1943 14.8794 19.0283C14.6414 18.8568 14.2983 18.6022 13.8501 18.2646C13.4351 17.9548 13.2275 17.5923 13.2275 17.1772C13.2275 17.0223 13.2607 16.8895 13.3271 16.7788C13.3936 16.6681 13.46 16.563 13.5264 16.4634C13.5983 16.3582 13.6343 16.2476 13.6343 16.1313C13.6343 16.0262 13.5789 15.9238 13.4683 15.8242C13.3631 15.7191 13.2137 15.5807 13.02 15.4092L11.8247 14.3716C11.2603 13.8846 10.8397 13.4225 10.563 12.9854C10.2863 12.5426 10.1646 12.111 10.1978 11.6904C10.242 11.2809 10.4302 10.8797 10.7622 10.4868C11.0942 10.0884 11.5286 9.72868 12.0654 9.40771C12.6077 9.08122 13.2137 8.82389 13.8833 8.63574C14.5529 8.44206 15.2419 8.34521 15.9502 8.34521C16.9297 8.34521 17.7957 8.49186 18.5483 8.78516C19.3065 9.07845 19.8267 9.46859 20.1089 9.95557C19.9705 10.2323 19.7741 10.4924 19.5195 10.7358C19.265 10.9738 18.9827 11.1924 18.6729 11.3916C18.3685 11.5853 18.0697 11.7596 17.7764 11.9146C17.4886 12.064 17.2396 12.1912 17.0293 12.2964C17.1344 12.4735 17.223 12.6423 17.2949 12.8027C17.3669 12.9577 17.4028 13.1099 17.4028 13.2593C17.4028 13.5083 17.3364 13.7131 17.2036 13.8735C17.0708 14.034 16.8688 14.1143 16.5977 14.1143C16.3818 14.1143 16.1688 14.0589 15.9585 13.9482C15.7537 13.8376 15.5601 13.7297 15.3774 13.6245C15.1948 13.5138 15.0371 13.4585 14.9043 13.4585C14.7936 13.4585 14.6968 13.4889 14.6138 13.5498C14.5308 13.6051 14.4893 13.6909 14.4893 13.8071C14.4893 13.9067 14.5446 14.0312 14.6553 14.1807C14.766 14.3301 14.9043 14.4795 15.0703 14.6289C15.2363 14.7728 15.4023 14.8945 15.5684 14.9941C15.7399 15.0882 15.8838 15.1353 16 15.1353C16.1605 15.1353 16.332 15.0882 16.5146 14.9941C16.6973 14.8945 16.8771 14.7977 17.0542 14.7036C17.2313 14.604 17.389 14.5542 17.5273 14.5542C17.7598 14.5542 18.0282 14.6372 18.3325 14.8032C18.6424 14.9692 18.9412 15.1795 19.229 15.4341C19.5223 15.6831 19.763 15.9432 19.9512 16.2144C20.1449 16.48 20.2417 16.7124 20.2417 16.9116C20.2417 17.1938 20.1421 17.5535 19.9429 17.9907C19.7437 18.4224 19.4836 18.8789 19.1626 19.3604C18.8416 19.8363 18.5013 20.2845 18.1416 20.7051C17.7819 21.1201 17.436 21.4604 17.104 21.7261C16.7775 21.9917 16.5091 22.1245 16.2988 22.1245ZM16 24.6646C14.8158 24.6646 13.7007 24.4377 12.6548 23.9839C11.6089 23.5356 10.6875 22.9131 9.89062 22.1162C9.09375 21.3193 8.46842 20.4007 8.01465 19.3604C7.56641 18.3145 7.34229 17.1966 7.34229 16.0068C7.34229 14.8226 7.56641 13.7103 8.01465 12.6699C8.46842 11.624 9.09098 10.7026 9.88232 9.90576C10.6792 9.10889 11.6006 8.48633 12.6465 8.03809C13.6924 7.58431 14.8075 7.35742 15.9917 7.35742C17.1759 7.35742 18.291 7.58431 19.3369 8.03809C20.3883 8.48633 21.3097 9.10889 22.1011 9.90576C22.8979 10.7026 23.5233 11.624 23.9771 12.6699C24.4308 13.7103 24.6577 14.8226 24.6577 16.0068C24.6577 17.1966 24.4308 18.3145 23.9771 19.3604C23.5233 20.4007 22.8979 21.3193 22.1011 22.1162C21.3097 22.9131 20.3911 23.5356 19.3452 23.9839C18.2993 24.4377 17.1842 24.6646 16 24.6646ZM16 23.187C16.9795 23.187 17.9009 22.9989 18.7642 22.6226C19.633 22.2463 20.3966 21.7288 21.0552 21.0703C21.7192 20.4118 22.2367 19.6509 22.6074 18.7876C22.9837 17.9188 23.1719 16.9919 23.1719 16.0068C23.1719 15.0273 22.9837 14.106 22.6074 13.2427C22.2367 12.3739 21.7192 11.6102 21.0552 10.9517C20.3911 10.2931 19.6274 9.77572 18.7642 9.39941C17.9009 9.02311 16.9767 8.83496 15.9917 8.83496C15.0122 8.83496 14.0881 9.02311 13.2192 9.39941C12.356 9.77572 11.5951 10.2931 10.9365 10.9517C10.278 11.6102 9.76058 12.3739 9.38428 13.2427C9.01351 14.106 8.82812 15.0273 8.82812 16.0068C8.82812 16.9919 9.01351 17.9188 9.38428 18.7876C9.76058 19.6509 10.278 20.4118 10.9365 21.0703C11.6006 21.7288 12.3643 22.2463 13.2275 22.6226C14.0964 22.9989 15.0205 23.187 16 23.187Z" fill="#17D3D2"/>
</svg>
