<svg width="32" height="33" viewBox="0 0 32 33" fill="none" xmlns="http://www.w3.org/2000/svg">
<path d="M11.335 26.4927C10.4163 26.4927 9.71631 26.2547 9.23486 25.7788C8.75895 25.3084 8.521 24.6167 8.521 23.7036V14.3237C8.521 13.4106 8.75895 12.7189 9.23486 12.2485C9.71631 11.7726 10.4163 11.5347 11.335 11.5347H20.665C21.5837 11.5347 22.2809 11.7726 22.7568 12.2485C23.2383 12.7189 23.479 13.4106 23.479 14.3237V23.7036C23.479 24.6112 23.2466 25.3029 22.7817 25.7788C22.3224 26.2547 21.6777 26.4927 20.8477 26.4927H11.335ZM10.3721 10.2314C10.4274 9.82194 10.5685 9.50374 10.7954 9.27686C11.0278 9.04997 11.3765 8.93652 11.8413 8.93652H20.0508C20.5212 8.93652 20.8698 9.04997 21.0967 9.27686C21.3291 9.50374 21.473 9.82194 21.5283 10.2314H10.3721ZM11.7832 7.74121C11.8164 7.35384 11.9465 7.05778 12.1733 6.85303C12.4058 6.64827 12.7295 6.5459 13.1445 6.5459H18.7559C19.1709 6.5459 19.4919 6.64827 19.7188 6.85303C19.9512 7.05778 20.084 7.35384 20.1172 7.74121H11.7832ZM14.564 22.4502L19.2954 19.6694C19.4559 19.5754 19.561 19.4481 19.6108 19.2876C19.6662 19.1271 19.6662 18.9666 19.6108 18.8062C19.5555 18.6457 19.4504 18.5212 19.2954 18.4326L14.564 15.6353C14.3979 15.5356 14.2264 15.4941 14.0493 15.5107C13.8778 15.5273 13.7339 15.5938 13.6177 15.71C13.5015 15.8206 13.4434 15.9728 13.4434 16.1665V21.9189C13.4434 22.1126 13.5015 22.2676 13.6177 22.3838C13.7339 22.5 13.8778 22.5664 14.0493 22.583C14.2209 22.5996 14.3924 22.5553 14.564 22.4502Z" fill="#17D3D2"/>
</svg>
