<svg width="32" height="32" viewBox="0 0 32 32" fill="none" xmlns="http://www.w3.org/2000/svg">
<path d="M16 12.9604C15.4632 12.9604 14.979 12.8249 14.5474 12.5537C14.1213 12.277 13.7809 11.909 13.5264 11.4497C13.2773 10.9849 13.1501 10.4647 13.1445 9.88916C13.1445 9.33024 13.2718 8.82113 13.5264 8.36182C13.7809 7.90251 14.124 7.53727 14.5557 7.26611C14.9873 6.99495 15.4688 6.85938 16 6.85938C16.5312 6.85938 17.0099 6.99495 17.436 7.26611C17.8677 7.53727 18.2108 7.90251 18.4653 8.36182C18.7254 8.81559 18.8555 9.31917 18.8555 9.87256C18.8555 10.4481 18.7282 10.971 18.4736 11.4414C18.2246 11.9062 17.8843 12.277 17.4526 12.5537C17.021 12.8249 16.5368 12.9604 16 12.9604ZM16 11.5659C16.2712 11.5659 16.5119 11.494 16.7222 11.3501C16.9325 11.2062 17.0985 11.0098 17.2202 10.7607C17.3475 10.5062 17.4111 10.2101 17.4111 9.87256C17.4111 9.55713 17.3475 9.27767 17.2202 9.03418C17.0985 8.79069 16.9297 8.59977 16.7139 8.46143C16.5036 8.32308 16.2656 8.25391 16 8.25391C15.7344 8.25391 15.4937 8.32308 15.2778 8.46143C15.0675 8.59977 14.9015 8.79346 14.7798 9.04248C14.658 9.28597 14.5972 9.56543 14.5972 9.88086C14.5972 10.2184 14.658 10.5145 14.7798 10.769C14.9015 11.0181 15.0675 11.2145 15.2778 11.3584C15.4937 11.4967 15.7344 11.5659 16 11.5659ZM11.584 18.9453C11.1966 18.9453 10.8895 18.8429 10.6626 18.6382C10.4412 18.4279 10.3306 18.1374 10.3306 17.7666C10.3306 17.3128 10.4634 16.848 10.729 16.3721C11.0002 15.8962 11.3848 15.4562 11.8828 15.0522C12.3809 14.6427 12.9785 14.3135 13.6758 14.0645C14.373 13.8154 15.1478 13.6909 16 13.6909C16.8522 13.6909 17.6242 13.8154 18.3159 14.0645C19.0132 14.3135 19.6108 14.6427 20.1089 15.0522C20.6069 15.4562 20.9915 15.8962 21.2627 16.3721C21.5339 16.848 21.6694 17.3128 21.6694 17.7666C21.6694 18.1374 21.556 18.4279 21.3291 18.6382C21.1077 18.8429 20.8034 18.9453 20.416 18.9453H11.584ZM12.0488 17.5425H19.9429C20.0093 17.5425 20.0563 17.5314 20.084 17.5093C20.1117 17.4871 20.1227 17.4539 20.1172 17.4097C20.0895 17.1994 19.9788 16.9614 19.7852 16.6958C19.5915 16.4302 19.3203 16.1756 18.9717 15.9321C18.623 15.6831 18.1997 15.4811 17.7017 15.3262C17.2036 15.1657 16.6364 15.0854 16 15.0854C15.3636 15.0854 14.7936 15.1657 14.29 15.3262C13.792 15.4811 13.3687 15.6831 13.02 15.9321C12.6769 16.1756 12.4085 16.4302 12.2148 16.6958C12.0212 16.9614 11.9077 17.1994 11.8745 17.4097C11.8745 17.4539 11.8883 17.4871 11.916 17.5093C11.9437 17.5314 11.988 17.5425 12.0488 17.5425ZM9.34277 25.1294C9.11035 25.1294 8.90837 25.0436 8.73682 24.8721C8.5708 24.7061 8.48779 24.5041 8.48779 24.2661C8.48779 24.0337 8.5708 23.8317 8.73682 23.6602C8.90837 23.4886 9.11035 23.4028 9.34277 23.4028H9.86572V21.7427C9.86572 21.2446 9.99854 20.8573 10.2642 20.5806C10.5353 20.2983 10.931 20.1572 11.4512 20.1572H20.5488C21.069 20.1572 21.4647 20.2983 21.7358 20.5806C22.007 20.8573 22.1426 21.2446 22.1426 21.7427V23.4028H22.6572C22.8896 23.4028 23.0889 23.4886 23.2549 23.6602C23.4264 23.8317 23.5122 24.0337 23.5122 24.2661C23.5122 24.5041 23.4264 24.7061 23.2549 24.8721C23.0889 25.0436 22.8896 25.1294 22.6572 25.1294H9.34277ZM14.3979 23.2783H17.6104C17.7874 23.2783 17.9341 23.2174 18.0503 23.0957C18.172 22.974 18.2329 22.8245 18.2329 22.6475C18.2329 22.4704 18.172 22.321 18.0503 22.1992C17.9341 22.083 17.7874 22.0249 17.6104 22.0249H14.3979C14.2209 22.0249 14.0715 22.083 13.9497 22.1992C13.8335 22.321 13.7754 22.4704 13.7754 22.6475C13.7754 22.8245 13.8335 22.974 13.9497 23.0957C14.0715 23.2174 14.2209 23.2783 14.3979 23.2783Z" fill="#17D3D2"/>
</svg>
