<svg width="33" height="33" viewBox="0 0 33 33" fill="none" xmlns="http://www.w3.org/2000/svg">
<path d="M15.9023 25.4302C15.6367 25.4302 15.4071 25.3555 15.2134 25.2061C15.0252 25.0566 14.9007 24.8491 14.8398 24.5835L14.4331 22.8652C14.3058 22.821 14.1785 22.7739 14.0513 22.7241C13.9295 22.6743 13.8133 22.6245 13.7026 22.5747L12.2085 23.4961C11.9871 23.6344 11.7547 23.6925 11.5112 23.6704C11.2677 23.6483 11.0519 23.5431 10.8638 23.355L9.80127 22.3008C9.61865 22.1126 9.51351 21.894 9.48584 21.645C9.4637 21.3905 9.52734 21.1525 9.67676 20.9312L10.5815 19.4453C10.5317 19.3291 10.4819 19.2129 10.4321 19.0967C10.3879 18.9805 10.3464 18.8615 10.3076 18.7397L8.58105 18.333C8.31543 18.2777 8.10791 18.1559 7.9585 17.9678C7.80908 17.7741 7.73438 17.5417 7.73438 17.2705V15.7847C7.73438 15.5246 7.80908 15.3005 7.9585 15.1123C8.10791 14.9186 8.31543 14.7913 8.58105 14.7305L10.291 14.3237C10.3298 14.1854 10.374 14.0581 10.4238 13.9419C10.4792 13.8257 10.529 13.715 10.5732 13.6099L9.66016 12.0908C9.51074 11.8639 9.4471 11.6287 9.46924 11.3853C9.49137 11.1418 9.59928 10.9287 9.79297 10.7461L10.8638 9.68359C11.0575 9.50651 11.2677 9.40413 11.4946 9.37646C11.7215 9.3488 11.9484 9.39583 12.1753 9.51758L13.6943 10.4639C13.805 10.4085 13.924 10.356 14.0513 10.3062C14.1785 10.2508 14.3058 10.201 14.4331 10.1567L14.8398 8.43018C14.9007 8.17008 15.0252 7.96533 15.2134 7.81592C15.4071 7.66097 15.6367 7.5835 15.9023 7.5835H17.4214C17.687 7.5835 17.9139 7.66097 18.1021 7.81592C18.2957 7.96533 18.4202 8.17008 18.4756 8.43018L18.8906 10.1733C19.0234 10.2176 19.1507 10.2646 19.2725 10.3145C19.3942 10.3643 19.5076 10.4168 19.6128 10.4722L21.1567 9.51758C21.3781 9.39583 21.6022 9.35156 21.8291 9.38477C22.056 9.41243 22.2635 9.50928 22.4517 9.67529L23.5308 10.7461C23.7244 10.9287 23.8296 11.1418 23.8462 11.3853C23.8683 11.6287 23.8102 11.8639 23.6719 12.0908L22.7505 13.6099C22.7948 13.715 22.8418 13.8257 22.8916 13.9419C22.9414 14.0581 22.9884 14.1854 23.0327 14.3237L24.751 14.7305C25.0111 14.7913 25.2158 14.9186 25.3652 15.1123C25.5146 15.3005 25.5894 15.5246 25.5894 15.7847V17.2705C25.5894 17.5417 25.5146 17.7741 25.3652 17.9678C25.2158 18.1559 25.0111 18.2777 24.751 18.333L23.0161 18.7397C22.9774 18.8615 22.9331 18.9805 22.8833 19.0967C22.839 19.2129 22.7892 19.3291 22.7339 19.4453L23.647 20.9312C23.7964 21.1525 23.86 21.3905 23.8379 21.645C23.8158 21.894 23.7106 22.1126 23.5225 22.3008L22.46 23.355C22.2718 23.5431 22.056 23.6483 21.8125 23.6704C21.569 23.6925 21.3366 23.6344 21.1152 23.4961L19.6128 22.5747C19.5021 22.6245 19.3859 22.6743 19.2642 22.7241C19.1424 22.7739 19.0179 22.821 18.8906 22.8652L18.4756 24.5835C18.4202 24.8491 18.2957 25.0566 18.1021 25.2061C17.9139 25.3555 17.687 25.4302 17.4214 25.4302H15.9023ZM16.666 19.3955C17.1917 19.3955 17.6732 19.2655 18.1104 19.0054C18.5475 18.7453 18.8962 18.3966 19.1562 17.9595C19.4163 17.5168 19.5464 17.0298 19.5464 16.4985C19.5464 15.9728 19.4163 15.4941 19.1562 15.0625C18.8962 14.6253 18.5475 14.2767 18.1104 14.0166C17.6732 13.7565 17.1917 13.6265 16.666 13.6265C16.1348 13.6265 15.6506 13.7565 15.2134 14.0166C14.7817 14.2767 14.4331 14.6253 14.1675 15.0625C13.9074 15.4941 13.7773 15.9728 13.7773 16.4985C13.7773 17.0298 13.9074 17.5168 14.1675 17.9595C14.4276 18.3966 14.7762 18.7453 15.2134 19.0054C15.6506 19.2655 16.1348 19.3955 16.666 19.3955Z" fill="#17D3D2"/>
</svg>
