<svg width="32" height="32" viewBox="0 0 32 32" fill="none" xmlns="http://www.w3.org/2000/svg">
<path d="M16 24.6646C14.8158 24.6646 13.7007 24.4377 12.6548 23.9839C11.6089 23.5356 10.6875 22.9131 9.89062 22.1162C9.09375 21.3193 8.46842 20.4007 8.01465 19.3604C7.56641 18.3145 7.34229 17.1966 7.34229 16.0068C7.34229 14.8226 7.56641 13.7103 8.01465 12.6699C8.46842 11.624 9.09098 10.7026 9.88232 9.90576C10.6792 9.10889 11.6006 8.48633 12.6465 8.03809C13.6924 7.58431 14.8075 7.35742 15.9917 7.35742C17.1759 7.35742 18.291 7.58431 19.3369 8.03809C20.3883 8.48633 21.3097 9.10889 22.1011 9.90576C22.8979 10.7026 23.5233 11.624 23.9771 12.6699C24.4308 13.7103 24.6577 14.8226 24.6577 16.0068C24.6577 17.1966 24.4308 18.3145 23.9771 19.3604C23.5233 20.4007 22.8979 21.3193 22.1011 22.1162C21.3097 22.9131 20.3911 23.5356 19.3452 23.9839C18.2993 24.4377 17.1842 24.6646 16 24.6646ZM16 22.7637C16.9352 22.7637 17.8096 22.5894 18.623 22.2407C19.4421 21.8921 20.1615 21.4106 20.7812 20.7964C21.401 20.1766 21.8853 19.46 22.2339 18.6465C22.5825 17.8275 22.7568 16.9476 22.7568 16.0068C22.7568 15.0716 22.5798 14.1973 22.2256 13.3838C21.877 12.5648 21.3927 11.8454 20.7729 11.2256C20.1587 10.6058 19.4421 10.1216 18.623 9.77295C17.8096 9.42432 16.9325 9.25 15.9917 9.25C15.0565 9.25 14.1794 9.42432 13.3604 9.77295C12.5469 10.1216 11.8302 10.6058 11.2104 11.2256C10.5962 11.8454 10.1147 12.5648 9.76611 13.3838C9.42301 14.1973 9.25146 15.0716 9.25146 16.0068C9.25146 16.9476 9.42301 17.8275 9.76611 18.6465C10.1147 19.46 10.599 20.1766 11.2188 20.7964C11.8385 21.4106 12.5552 21.8921 13.3687 22.2407C14.1877 22.5894 15.0648 22.7637 16 22.7637ZM12.082 17.2769C11.7279 17.2769 11.4263 17.1523 11.1772 16.9033C10.9282 16.6543 10.8037 16.3527 10.8037 15.9985C10.8037 15.6444 10.9282 15.3428 11.1772 15.0938C11.4263 14.8447 11.7279 14.7202 12.082 14.7202C12.4307 14.7202 12.7295 14.8447 12.9785 15.0938C13.2331 15.3428 13.3604 15.6444 13.3604 15.9985C13.3604 16.3527 13.2358 16.6543 12.9868 16.9033C12.7378 17.1523 12.4362 17.2769 12.082 17.2769ZM15.9917 17.2769C15.6431 17.2769 15.3415 17.1523 15.0869 16.9033C14.8379 16.6543 14.7134 16.3527 14.7134 15.9985C14.7134 15.6444 14.8379 15.3428 15.0869 15.0938C15.3415 14.8447 15.6431 14.7202 15.9917 14.7202C16.3403 14.7202 16.6392 14.8447 16.8882 15.0938C17.1427 15.3428 17.27 15.6444 17.27 15.9985C17.27 16.3527 17.1427 16.6543 16.8882 16.9033C16.6392 17.1523 16.3403 17.2769 15.9917 17.2769ZM19.9014 17.2769C19.5472 17.2769 19.2456 17.1523 18.9966 16.9033C18.7476 16.6543 18.623 16.3527 18.623 15.9985C18.623 15.6444 18.7476 15.3428 18.9966 15.0938C19.2456 14.8447 19.5472 14.7202 19.9014 14.7202C20.2555 14.7202 20.5571 14.8447 20.8062 15.0938C21.0552 15.3428 21.1797 15.6444 21.1797 15.9985C21.1797 16.3527 21.0552 16.6543 20.8062 16.9033C20.5571 17.1523 20.2555 17.2769 19.9014 17.2769Z" fill="#17D3D2"/>
</svg>
