<svg width="32" height="32" viewBox="0 0 32 32" fill="none" xmlns="http://www.w3.org/2000/svg">
<path d="M15.2114 23.5356C14.5086 23.5356 14.0189 23.4277 13.7422 23.2119C13.4655 23.0016 13.3271 22.7 13.3271 22.3071C13.3271 21.7759 13.4904 21.217 13.8169 20.6304C14.1434 20.0438 14.6138 19.4959 15.228 18.9868C15.8423 18.4722 16.5811 18.0544 17.4443 17.7334C18.3132 17.4124 19.2843 17.252 20.3579 17.252C21.4315 17.252 22.3999 17.4124 23.2632 17.7334C24.132 18.0544 24.8735 18.4722 25.4878 18.9868C26.1021 19.4959 26.5724 20.0438 26.8989 20.6304C27.2254 21.217 27.3887 21.7759 27.3887 22.3071C27.3887 22.7 27.2503 23.0016 26.9736 23.2119C26.6969 23.4277 26.2044 23.5356 25.4961 23.5356H15.2114ZM20.3579 15.791C19.7437 15.791 19.182 15.6278 18.6729 15.3013C18.1637 14.9692 17.7542 14.5265 17.4443 13.9731C17.14 13.4142 16.9878 12.7889 16.9878 12.0972C16.9878 11.4276 17.1427 10.8188 17.4526 10.271C17.7625 9.71761 18.172 9.28044 18.6812 8.95947C19.1903 8.63298 19.7492 8.46973 20.3579 8.46973C20.9722 8.46973 21.5339 8.63021 22.043 8.95117C22.5521 9.27214 22.9588 9.70654 23.2632 10.2544C23.5731 10.7967 23.728 11.4082 23.728 12.0889C23.728 12.7806 23.5731 13.4059 23.2632 13.9648C22.9588 14.5238 22.5521 14.9692 22.043 15.3013C21.5339 15.6278 20.9722 15.791 20.3579 15.791ZM6.19678 23.5439C5.61572 23.5439 5.20622 23.4222 4.96826 23.1787C4.73031 22.9408 4.61133 22.6032 4.61133 22.166C4.61133 21.6126 4.75521 21.0482 5.04297 20.4727C5.33626 19.8916 5.7513 19.3576 6.28809 18.8706C6.8304 18.3836 7.4751 17.988 8.22217 17.6836C8.97477 17.3792 9.81315 17.2271 10.7373 17.2271C11.4678 17.2271 12.1291 17.3239 12.7212 17.5176C13.3188 17.7057 13.8418 17.9437 14.29 18.2314C13.8086 18.6133 13.3963 19.0422 13.0532 19.5181C12.7101 19.994 12.4473 20.481 12.2646 20.979C12.0876 21.4715 12.0018 21.9391 12.0073 22.3818C12.0184 22.8301 12.1346 23.2174 12.356 23.5439H6.19678ZM10.7373 15.9736C10.2061 15.9736 9.71631 15.8325 9.26807 15.5503C8.82536 15.2625 8.47119 14.8752 8.20557 14.3882C7.93994 13.9012 7.80713 13.3589 7.80713 12.7612C7.80713 12.1746 7.93994 11.6434 8.20557 11.1675C8.47673 10.686 8.83366 10.3042 9.27637 10.022C9.72461 9.73975 10.2116 9.59863 10.7373 9.59863C11.263 9.59863 11.7472 9.73975 12.1899 10.022C12.6382 10.2987 12.9951 10.675 13.2607 11.1509C13.5319 11.6268 13.6675 12.1608 13.6675 12.7529C13.6675 13.3506 13.5347 13.8957 13.269 14.3882C13.0034 14.8752 12.6493 15.2625 12.2065 15.5503C11.7638 15.8325 11.2741 15.9736 10.7373 15.9736Z" fill="#17D3D2"/>
</svg>
